<svg xmlns="http://www.w3.org/2000/svg" width="1200" height="630" viewBox="0 0 1200 630">
  <defs>
    <linearGradient id="g" x1="0" x2="1" y1="0" y2="1">
      <stop offset="0" stop-color="#2563eb"/>
      <stop offset="1" stop-color="#8b5cf6"/>
    </linearGradient>
  </defs>
  <rect width="1200" height="630" fill="#ffffff"/>
  <rect x="40" y="40" width="1120" height="550" rx="24" fill="#f8fafc" stroke="#e5e7eb"/>
  <g transform="translate(120,120)">
    <rect x="0" y="0" width="180" height="180" rx="24" fill="#fff" stroke="#e5e7eb"/>
    <path d="M12 126h120l-9 30a18 18 0 0 1-17.1 12H38.1A18 18 0 0 1 21 156l-9-30zm18-30 8.1-24.6A30 30 0 0 1 60 54h12a30 30 0 0 1 27.9 17.4L108 96H30z" fill="url(#g)" transform="translate(24,18) scale(1.0)"/>
    <circle cx="58" cy="158" r="15" fill="#111827"/>
    <circle cx="122" cy="158" r="15" fill="#111827"/>
  </g>
  <text x="360" y="200" font-family="Inter, system-ui, -apple-system, Segoe UI, Roboto, Helvetica, Arial, sans-serif" font-size="56" font-weight="800" fill="#111827">ClubCovoit</text>
  <text x="360" y="260" font-family="Inter, system-ui, -apple-system, Segoe UI, Roboto, Helvetica, Arial, sans-serif" font-size="34" fill="#374151">Organisez vos covoiturages simplement</text>
  <text x="360" y="320" font-family="Inter, system-ui, -apple-system, Segoe UI, Roboto, Helvetica, Arial, sans-serif" font-size="24" fill="#6b7280">Événements • Voitures • Passagers</text>
</svg>
