<svg xmlns="http://www.w3.org/2000/svg" viewBox="0 0 512 512"><path fill="#000000" d="M362.7 192l-13.5-40.4c-6.8-20.5-26-34.6-47.6-34.6H210.5c-21.6 0-40.8 14.1-47.6 34.6L149.3 192H96c-17.7 0-32 14.3-32 32v96c0 17.7 14.3 32 32 32h16c0 17.7 14.3 32 32 32s32-14.3 32-32h160c0 17.7 14.3 32 32 32s32-14.3 32-32h16c17.7 0 32-14.3 32-32v-96c0-17.7-14.3-32-32-32h-53.3zM192 192l10.7-32c2.3-6.8 8.7-11.4 15.9-11.4h90.9c7.2 0 13.6 4.6 15.9 11.4l10.7 32H192zM160 328c-13.3 0-24-10.7-24-24s10.7-24 24-24 24 10.7 24 24-10.7 24-24 24zm216 0c-13.3 0-24-10.7-24-24s10.7-24 24-24 24 10.7 24 24-10.7 24-24 24z"/></svg>
